<svg xmlns="http://www.w3.org/2000/svg" width="20.204" height="25.464" viewBox="0 0 20.204 25.464">
  <g id="bus-east" transform="translate(-157.298 -451.175)">
    <rect id="Rectangle_4" data-name="Rectangle 4" width="17" height="10" transform="translate(159 456)" fill="#def1ff"/>
    <g id="noun-bus-110224" transform="translate(-6.531 403.823)">
      <path id="Path_1" data-name="Path 1" d="M178.879,47.6h-9.867a4.921,4.921,0,0,0-4.933,4.933v14.8a1.63,1.63,0,0,0,1.635,1.635h.743c0,.059-.03.089-.03.149v1.9a1.516,1.516,0,1,0,3.031,0V69.148a.223.223,0,0,0-.03-.149h9.213c0,.059-.03.089-.03.149v1.9a1.516,1.516,0,1,0,3.031,0v-1.9a.223.223,0,0,0-.03-.149h.535a1.63,1.63,0,0,0,1.635-1.635V52.535a4.877,4.877,0,0,0-4.9-4.933Zm-8.232,1.634h6.568v1.635h-6.568ZM165.714,65.7a1.635,1.635,0,1,1,1.635,1.635A1.649,1.649,0,0,1,165.714,65.7Zm14.8,1.635a1.635,1.635,0,0,1,0-3.269,1.649,1.649,0,0,1,1.635,1.635A1.611,1.611,0,0,1,180.514,67.335Zm1.664-4.933H165.713V52.535h16.435V62.4Z" transform="translate(0 0)" fill="#386586" stroke="#c9c9c9" stroke-width="0.5"/>
    </g>
    <path id="Icon_awesome-location-arrow" data-name="Icon awesome-location-arrow" d="M6.156,7.042.4,4.384A.671.671,0,0,1,.664,3.1H3.1V.664A.671.671,0,0,1,4.384.4L7.042,6.156a.691.691,0,0,1-.886.886Z" transform="translate(162.386 461.594) rotate(-45)" fill="#c92020"/>
  </g>
</svg>
