<svg xmlns="http://www.w3.org/2000/svg" width="86.175" height="86.175" viewBox="0 0 86.175 86.175"><g transform="translate(-550 -157)"><path d="M43.088,0A43.088,43.088,0,1,1,0,43.088,43.088,43.088,0,0,1,43.088,0Z" transform="translate(550 157)" fill="#cc123c"/><g transform="translate(554.309 161.309)" fill="#016cb9"><path d="M 39.20934677124023 77.41869354248047 C 34.05067825317383 77.41869354248047 29.04684638977051 76.40857696533203 24.33685874938965 74.41642761230469 C 19.78703498840332 72.49201202392578 15.70065784454346 69.73683929443359 12.19125747680664 66.22743225097656 C 8.681858062744141 62.71803665161133 5.926680088043213 58.63165664672852 4.00226879119873 54.08183670043945 C 2.010113477706909 49.37184524536133 1.000002384185791 44.36801528930664 1.000002384185791 39.20934677124023 C 1.000002384185791 34.05067825317383 2.010113477706909 29.04684638977051 4.00226879119873 24.33685874938965 C 5.926680088043213 19.78703498840332 8.681858062744141 15.70065784454346 12.19125747680664 12.19125747680664 C 15.70065784454346 8.681858062744141 19.78703498840332 5.926680088043213 24.33685874938965 4.00226879119873 C 29.04684638977051 2.010113477706909 34.05067825317383 1.000002384185791 39.20934677124023 1.000002384185791 C 44.36801528930664 1.000002384185791 49.37184524536133 2.010113477706909 54.08183670043945 4.00226879119873 C 58.63165664672852 5.926680088043213 62.71803665161133 8.681858062744141 66.22743225097656 12.19125747680664 C 69.73683929443359 15.70065784454346 72.49201202392578 19.78703498840332 74.41642761230469 24.33685874938965 C 76.40857696533203 29.04684638977051 77.41869354248047 34.05067825317383 77.41869354248047 39.20934677124023 C 77.41869354248047 44.36801528930664 76.40857696533203 49.37184524536133 74.41642761230469 54.08183670043945 C 72.49201202392578 58.63165664672852 69.73683929443359 62.71803665161133 66.22743225097656 66.22743225097656 C 62.71803665161133 69.73683929443359 58.63165664672852 72.49201202392578 54.08183670043945 74.41642761230469 C 49.37184524536133 76.40857696533203 44.36801528930664 77.41869354248047 39.20934677124023 77.41869354248047 Z" stroke="none"/><path d="M 39.20934677124023 1.999992370605469 C 34.18524169921875 1.999992370605469 29.31247711181641 2.9835205078125 24.72640609741211 4.923263549804688 C 20.29578018188477 6.797264099121094 16.31625366210938 9.480476379394531 12.89836883544922 12.89836883544922 C 9.480476379394531 16.31625366210938 6.797264099121094 20.29578018188477 4.923263549804688 24.72640609741211 C 2.9835205078125 29.31247711181641 1.999992370605469 34.18524169921875 1.999992370605469 39.20934677124023 C 1.999992370605469 44.23345184326172 2.9835205078125 49.10621643066406 4.923263549804688 53.69228744506836 C 6.797264099121094 58.12290954589844 9.480476379394531 62.10243988037109 12.89836883544922 65.52032470703125 C 16.31625366210938 68.93820190429688 20.29578018188477 71.62141418457031 24.72640609741211 73.49541473388672 C 29.31247711181641 75.43515777587891 34.18524169921875 76.41868591308594 39.20934677124023 76.41868591308594 C 44.23345184326172 76.41868591308594 49.10621643066406 75.43515777587891 53.69228744506836 73.49541473388672 C 58.12290954589844 71.62141418457031 62.10243988037109 68.93820190429688 65.52032470703125 65.52032470703125 C 68.93820190429688 62.10243988037109 71.62141418457031 58.12290954589844 73.49541473388672 53.69228744506836 C 75.43515777587891 49.10621643066406 76.41868591308594 44.23345184326172 76.41868591308594 39.20934677124023 C 76.41868591308594 34.18524169921875 75.43515777587891 29.31247711181641 73.49541473388672 24.72640609741211 C 71.62141418457031 20.29578018188477 68.93820190429688 16.31625366210938 65.52032470703125 12.89836883544922 C 62.10243988037109 9.480476379394531 58.12290954589844 6.797264099121094 53.69228744506836 4.923263549804688 C 49.10621643066406 2.9835205078125 44.23345184326172 1.999992370605469 39.20934677124023 1.999992370605469 M 39.20934677124023 -7.62939453125e-06 C 60.86406707763672 -7.62939453125e-06 78.41868591308594 17.55463027954102 78.41868591308594 39.20934677124023 C 78.41868591308594 60.86406707763672 60.86406707763672 78.41868591308594 39.20934677124023 78.41868591308594 C 17.55463027954102 78.41868591308594 -7.62939453125e-06 60.86406707763672 -7.62939453125e-06 39.20934677124023 C -7.62939453125e-06 17.55463027954102 17.55463027954102 -7.62939453125e-06 39.20934677124023 -7.62939453125e-06 Z" stroke="none" fill="#fff"/></g><path d="M.288.616,2.025-9.81H4.775l-.3,1.84h.115A3.639,3.639,0,0,1,5.918-9.417a3.558,3.558,0,0,1,1.918-.529,2.687,2.687,0,0,1,1.728.533,2.058,2.058,0,0,1,.77,1.442h.109a3.493,3.493,0,0,1,1.392-1.436,4.063,4.063,0,0,1,2.077-.54,2.7,2.7,0,0,1,2.213.93,3.144,3.144,0,0,1,.482,2.62L15.439.616H12.547l1.086-6.442a1.55,1.55,0,0,0-.258-1.307A1.376,1.376,0,0,0,12.3-7.563a1.822,1.822,0,0,0-1.31.5,2.207,2.207,0,0,0-.645,1.314L9.262.616h-2.8l1.1-6.5A1.522,1.522,0,0,0,7.31-7.112a1.307,1.307,0,0,0-1.083-.451,1.793,1.793,0,0,0-.9.241,2.132,2.132,0,0,0-.716.672,2.426,2.426,0,0,0-.38,1.008L3.173.616Zm20.358.2a3.9,3.9,0,0,1-1.714-.35A2.221,2.221,0,0,1,17.869-.578,2.811,2.811,0,0,1,17.7-2.3a3.5,3.5,0,0,1,.567-1.456A3.34,3.34,0,0,1,19.288-4.7a5.09,5.09,0,0,1,1.341-.55,9.277,9.277,0,0,1,1.524-.258q.91-.1,1.483-.183a2.526,2.526,0,0,0,.859-.255.7.7,0,0,0,.346-.5v-.041a1.118,1.118,0,0,0-.234-.994,1.41,1.41,0,0,0-1.069-.356,2.419,2.419,0,0,0-1.314.339,1.939,1.939,0,0,0-.77.862l-2.634-.217A4.4,4.4,0,0,1,19.888-8.5a4.9,4.9,0,0,1,1.728-1.073,6.457,6.457,0,0,1,2.267-.377,6.237,6.237,0,0,1,1.626.2,3.677,3.677,0,0,1,1.31.631,2.419,2.419,0,0,1,.8,1.1,3.145,3.145,0,0,1,.1,1.6L26.544.616H23.8L24.046-.83h-.081a3.708,3.708,0,0,1-.815.859,3.726,3.726,0,0,1-1.106.577A4.429,4.429,0,0,1,20.645.813Zm1.161-2a2.666,2.666,0,0,0,1.164-.255,2.493,2.493,0,0,0,.882-.689A2.122,2.122,0,0,0,24.3-3.11l.176-1.106a1.389,1.389,0,0,1-.39.156q-.255.068-.55.126t-.594.1q-.3.044-.536.085a4.167,4.167,0,0,0-.937.238,1.815,1.815,0,0,0-.672.438,1.239,1.239,0,0,0-.319.682.9.9,0,0,0,.282.9A1.61,1.61,0,0,0,21.806-1.183ZM28.16,4.526l2.4-14.337h2.851l-.292,1.751h.129a4.873,4.873,0,0,1,.689-.859,3.583,3.583,0,0,1,1.076-.733,3.606,3.606,0,0,1,1.514-.3,3.423,3.423,0,0,1,2,.594,3.325,3.325,0,0,1,1.239,1.785,6.4,6.4,0,0,1,.085,2.983,7.749,7.749,0,0,1-1.049,2.943A5.368,5.368,0,0,1,36.981.172a4.426,4.426,0,0,1-2.25.614A3.006,3.006,0,0,1,33.349.508a2.273,2.273,0,0,1-.838-.7,2.823,2.823,0,0,1-.421-.859h-.109l-.923,5.58ZM32.525-4.6a4.6,4.6,0,0,0-.01,1.622A1.9,1.9,0,0,0,33.081-1.9a1.624,1.624,0,0,0,1.127.384,2.115,2.115,0,0,0,1.256-.39,3.033,3.033,0,0,0,.916-1.086A5.377,5.377,0,0,0,36.9-4.6a4.562,4.562,0,0,0,.007-1.588,1.912,1.912,0,0,0-.557-1.073,1.62,1.62,0,0,0-1.14-.387,2.187,2.187,0,0,0-1.252.373,2.884,2.884,0,0,0-.92,1.059A5.136,5.136,0,0,0,32.525-4.6Zm18.287-2.24-2.627.163A1.332,1.332,0,0,0,48-7.3a1.178,1.178,0,0,0-.482-.438,1.714,1.714,0,0,0-.791-.163,2.466,2.466,0,0,0-1.269.326,1.164,1.164,0,0,0-.631.835.574.574,0,0,0,.17.55,2.048,2.048,0,0,0,.93.38l1.833.38a3.871,3.871,0,0,1,2.121,1.039,2.174,2.174,0,0,1,.465,1.9,3.274,3.274,0,0,1-.876,1.741A4.735,4.735,0,0,1,47.676.409a6.766,6.766,0,0,1-2.41.411,5.149,5.149,0,0,1-3.231-.869A2.733,2.733,0,0,1,40.969-2.4l2.824-.149a1.231,1.231,0,0,0,.448.961,1.83,1.83,0,0,0,1.134.329A2.487,2.487,0,0,0,46.749-1.6a1.226,1.226,0,0,0,.641-.852.585.585,0,0,0-.2-.57,2.193,2.193,0,0,0-.927-.36l-1.738-.36A3.583,3.583,0,0,1,42.4-4.835a2.392,2.392,0,0,1-.441-2A3.155,3.155,0,0,1,42.771-8.5a4.205,4.205,0,0,1,1.677-1.069,6.782,6.782,0,0,1,2.325-.373,4.772,4.772,0,0,1,3.058.835A2.651,2.651,0,0,1,50.812-6.837Z" transform="translate(567.537 203.228)" fill="#fff" stroke="#fff" stroke-width="0.5"/></g></svg>