<svg xmlns="http://www.w3.org/2000/svg" width="60" height="60" viewBox="0 0 60 60">
  <g id="Group_2" data-name="Group 2" transform="translate(-148 -271)">
    <circle id="Ellipse_3" data-name="Ellipse 3" cx="30" cy="30" r="30" transform="translate(148 271)" fill="#d93d3d"/>
    <g id="Ellipse_4" data-name="Ellipse 4" transform="translate(150 273)" fill="#3d7fd9" stroke="#fff" stroke-width="1">
      <circle cx="28" cy="28" r="28" stroke="none"/>
      <circle cx="28" cy="28" r="27.5" fill="none"/>
    </g>
    <g id="Group_1" data-name="Group 1" transform="translate(2 4)">
      <path id="Path_2" data-name="Path 2" d="M.738,0V-9H3.222v.738a4.044,4.044,0,0,1,.8-.571,1.841,1.841,0,0,1,.887-.221,3.921,3.921,0,0,1,1.607.333,3.978,3.978,0,0,1,1.318.945,3.96,3.96,0,0,1,1.328-.95,3.967,3.967,0,0,1,1.606-.329,3.983,3.983,0,0,1,2.115.576,4.26,4.26,0,0,1,1.5,1.539,4.2,4.2,0,0,1,.554,2.133V0H12.447V-4.806a1.8,1.8,0,0,0-.221-.891,1.736,1.736,0,0,0-.6-.634,1.585,1.585,0,0,0-.864-.239,1.591,1.591,0,0,0-.859.239A1.76,1.76,0,0,0,9.3-5.7a1.772,1.772,0,0,0-.225.891V0H6.588V-4.806a1.8,1.8,0,0,0-.22-.891,1.712,1.712,0,0,0-.608-.634,1.6,1.6,0,0,0-.855-.239,1.576,1.576,0,0,0-.855.243,1.737,1.737,0,0,0-.607.643,1.825,1.825,0,0,0-.22.9V0ZM23.112-9H25.6V0H23.1l-.108-.936a2.761,2.761,0,0,1-.9.846,2.485,2.485,0,0,1-1.287.324,4.715,4.715,0,0,1-1.885-.378,4.854,4.854,0,0,1-1.539-1.044,4.882,4.882,0,0,1-1.035-1.543,4.764,4.764,0,0,1-.373-1.886,4.607,4.607,0,0,1,.351-1.8,4.563,4.563,0,0,1,.99-1.476,4.7,4.7,0,0,1,1.472-1,4.452,4.452,0,0,1,1.786-.36,3.155,3.155,0,0,1,1.494.351,4.247,4.247,0,0,1,1.161.891ZM20.88-2.151A1.923,1.923,0,0,0,22-2.488a2.139,2.139,0,0,0,.738-.9,2.281,2.281,0,0,0,.171-1.233,2.573,2.573,0,0,0-.405-1.129,2.509,2.509,0,0,0-.841-.806,2.132,2.132,0,0,0-1.094-.3,1.984,1.984,0,0,0-1.134.333,2.147,2.147,0,0,0-.756.891,2.368,2.368,0,0,0-.2,1.242,2.559,2.559,0,0,0,.427,1.12,2.65,2.65,0,0,0,.864.81A2.155,2.155,0,0,0,20.88-2.151ZM30.24,4.5H27.756V-9H30.24v.972A3.612,3.612,0,0,1,31.266-8.9a2.758,2.758,0,0,1,1.386-.338,4.616,4.616,0,0,1,1.84.369A4.736,4.736,0,0,1,36-7.844a4.842,4.842,0,0,1,1.017,1.508A4.583,4.583,0,0,1,37.386-4.5a4.648,4.648,0,0,1-.369,1.845A4.813,4.813,0,0,1,36-1.138,4.736,4.736,0,0,1,34.493-.117a4.616,4.616,0,0,1-1.84.369A2.729,2.729,0,0,1,31.266-.09,3.747,3.747,0,0,1,30.24-.954ZM32.616-6.849a1.976,1.976,0,0,0-1.1.319,2.275,2.275,0,0,0-.774.851A2.463,2.463,0,0,0,30.456-4.5a2.49,2.49,0,0,0,.283,1.184,2.231,2.231,0,0,0,.774.851,2,2,0,0,0,1.1.315,2.086,2.086,0,0,0,1.12-.315,2.332,2.332,0,0,0,.81-.846,2.363,2.363,0,0,0,.3-1.188,2.381,2.381,0,0,0-.3-1.174,2.322,2.322,0,0,0-.806-.855A2.08,2.08,0,0,0,32.616-6.849ZM41.9.162A4.872,4.872,0,0,1,40.563-.13a3.969,3.969,0,0,1-1.139-.648,2.889,2.889,0,0,1-.778-.985l2.088-.9a1.64,1.64,0,0,0,.3.311,2.014,2.014,0,0,0,.482.292,1.616,1.616,0,0,0,.661.126A2.148,2.148,0,0,0,42.714-2a.925.925,0,0,0,.423-.225.557.557,0,0,0,.162-.418.515.515,0,0,0-.207-.441,1.447,1.447,0,0,0-.5-.23q-.292-.077-.562-.13a5.5,5.5,0,0,1-1.562-.518,3.467,3.467,0,0,1-1.193-.967,2.257,2.257,0,0,1-.459-1.422,2.631,2.631,0,0,1,.472-1.571,3.12,3.12,0,0,1,1.242-1.022,3.87,3.87,0,0,1,1.66-.36,4.378,4.378,0,0,1,1.953.441,3.692,3.692,0,0,1,1.449,1.242L43.632-6.462a1.694,1.694,0,0,0-.3-.328,1.887,1.887,0,0,0-.423-.27,1.4,1.4,0,0,0-.509-.13,2.094,2.094,0,0,0-.639.041.871.871,0,0,0-.454.247.688.688,0,0,0-.167.486.462.462,0,0,0,.261.436,2.161,2.161,0,0,0,.6.207,4.587,4.587,0,0,1,.6.157,7.8,7.8,0,0,1,1.472.644,3.552,3.552,0,0,1,1.111.958,2.04,2.04,0,0,1,.4,1.332,2.442,2.442,0,0,1-.531,1.562A3.332,3.332,0,0,1,43.681-.1,3.778,3.778,0,0,1,41.9.162Z" transform="translate(153 301)" fill="#fff"/>
    </g>
  </g>
</svg>
