<svg xmlns="http://www.w3.org/2000/svg" width="86.175" height="86.175" viewBox="0 0 86.175 86.175">
  <g id="Group_2" data-name="Group 2" transform="translate(-148 -271)">
    <path id="Path_21" data-name="Path 21" d="M43.088,0A43.088,43.088,0,1,1,0,43.088,43.088,43.088,0,0,1,43.088,0Z" transform="translate(148 271)" fill="#cc123c"/>
    <g id="Path_20" data-name="Path 20" transform="translate(152.309 275.309)" fill="#016cb9">
      <path d="M 39.20934677124023 77.41869354248047 C 34.05067825317383 77.41869354248047 29.04684638977051 76.40857696533203 24.33685874938965 74.41642761230469 C 19.78703498840332 72.49201202392578 15.70065784454346 69.73683929443359 12.19125747680664 66.22743225097656 C 8.681858062744141 62.71803665161133 5.926680088043213 58.63165664672852 4.00226879119873 54.08183670043945 C 2.010113477706909 49.37184524536133 1.000002384185791 44.36801528930664 1.000002384185791 39.20934677124023 C 1.000002384185791 34.05067825317383 2.010113477706909 29.04684638977051 4.00226879119873 24.33685874938965 C 5.926680088043213 19.78703498840332 8.681858062744141 15.70065784454346 12.19125747680664 12.19125747680664 C 15.70065784454346 8.681858062744141 19.78703498840332 5.926680088043213 24.33685874938965 4.00226879119873 C 29.04684638977051 2.010113477706909 34.05067825317383 1.000002384185791 39.20934677124023 1.000002384185791 C 44.36801528930664 1.000002384185791 49.37184524536133 2.010113477706909 54.08183670043945 4.00226879119873 C 58.63165664672852 5.926680088043213 62.71803665161133 8.681858062744141 66.22743225097656 12.19125747680664 C 69.73683929443359 15.70065784454346 72.49201202392578 19.78703498840332 74.41642761230469 24.33685874938965 C 76.40857696533203 29.04684638977051 77.41869354248047 34.05067825317383 77.41869354248047 39.20934677124023 C 77.41869354248047 44.36801528930664 76.40857696533203 49.37184524536133 74.41642761230469 54.08183670043945 C 72.49201202392578 58.63165664672852 69.73683929443359 62.71803665161133 66.22743225097656 66.22743225097656 C 62.71803665161133 69.73683929443359 58.63165664672852 72.49201202392578 54.08183670043945 74.41642761230469 C 49.37184524536133 76.40857696533203 44.36801528930664 77.41869354248047 39.20934677124023 77.41869354248047 Z" stroke="none"/>
      <path d="M 39.20934677124023 1.999992370605469 C 34.18524169921875 1.999992370605469 29.31247711181641 2.9835205078125 24.72640609741211 4.923263549804688 C 20.29578018188477 6.797264099121094 16.31625366210938 9.480476379394531 12.89836883544922 12.89836883544922 C 9.480476379394531 16.31625366210938 6.797264099121094 20.29578018188477 4.923263549804688 24.72640609741211 C 2.9835205078125 29.31247711181641 1.999992370605469 34.18524169921875 1.999992370605469 39.20934677124023 C 1.999992370605469 44.23345184326172 2.9835205078125 49.10621643066406 4.923263549804688 53.69228744506836 C 6.797264099121094 58.12290954589844 9.480476379394531 62.10243988037109 12.89836883544922 65.52032470703125 C 16.31625366210938 68.93820190429688 20.29578018188477 71.62141418457031 24.72640609741211 73.49541473388672 C 29.31247711181641 75.43515777587891 34.18524169921875 76.41868591308594 39.20934677124023 76.41868591308594 C 44.23345184326172 76.41868591308594 49.10621643066406 75.43515777587891 53.69228744506836 73.49541473388672 C 58.12290954589844 71.62141418457031 62.10243988037109 68.93820190429688 65.52032470703125 65.52032470703125 C 68.93820190429688 62.10243988037109 71.62141418457031 58.12290954589844 73.49541473388672 53.69228744506836 C 75.43515777587891 49.10621643066406 76.41868591308594 44.23345184326172 76.41868591308594 39.20934677124023 C 76.41868591308594 34.18524169921875 75.43515777587891 29.31247711181641 73.49541473388672 24.72640609741211 C 71.62141418457031 20.29578018188477 68.93820190429688 16.31625366210938 65.52032470703125 12.89836883544922 C 62.10243988037109 9.480476379394531 58.12290954589844 6.797264099121094 53.69228744506836 4.923263549804688 C 49.10621643066406 2.9835205078125 44.23345184326172 1.999992370605469 39.20934677124023 1.999992370605469 M 39.20934677124023 -7.62939453125e-06 C 60.86406707763672 -7.62939453125e-06 78.41868591308594 17.55463027954102 78.41868591308594 39.20934677124023 C 78.41868591308594 60.86406707763672 60.86406707763672 78.41868591308594 39.20934677124023 78.41868591308594 C 17.55463027954102 78.41868591308594 -7.62939453125e-06 60.86406707763672 -7.62939453125e-06 39.20934677124023 C -7.62939453125e-06 17.55463027954102 17.55463027954102 -7.62939453125e-06 39.20934677124023 -7.62939453125e-06 Z" stroke="none" fill="#fff"/>
    </g>
    <g id="Group_3" data-name="Group 3" transform="translate(164.518 301.007)">
      <path id="Path_22" data-name="Path 22" d="M.32,0,2.138-10.909H5.014L4.7-8.984h.121A3.807,3.807,0,0,1,6.211-10.5a3.723,3.723,0,0,1,2.006-.554,2.812,2.812,0,0,1,1.808.558,2.153,2.153,0,0,1,.806,1.509h.114a3.654,3.654,0,0,1,1.456-1.5,4.251,4.251,0,0,1,2.173-.565,2.83,2.83,0,0,1,2.315.973,3.289,3.289,0,0,1,.5,2.741L16.172,0H13.146l1.136-6.74a1.622,1.622,0,0,0-.27-1.367,1.439,1.439,0,0,0-1.129-.451,1.907,1.907,0,0,0-1.371.522,2.309,2.309,0,0,0-.675,1.374L9.709,0H6.776L7.926-6.8a1.593,1.593,0,0,0-.259-1.282,1.367,1.367,0,0,0-1.133-.472,1.876,1.876,0,0,0-.941.252,2.231,2.231,0,0,0-.749.7,2.538,2.538,0,0,0-.4,1.055L3.338,0Zm21.3.206A4.081,4.081,0,0,1,19.826-.16a2.324,2.324,0,0,1-1.112-1.09,2.941,2.941,0,0,1-.178-1.8A3.664,3.664,0,0,1,19.13-4.57,3.5,3.5,0,0,1,20.2-5.561a5.325,5.325,0,0,1,1.4-.575,9.706,9.706,0,0,1,1.594-.27q.952-.1,1.552-.192a2.643,2.643,0,0,0,.9-.266.728.728,0,0,0,.362-.522v-.043a1.17,1.17,0,0,0-.245-1.04,1.476,1.476,0,0,0-1.119-.373,2.531,2.531,0,0,0-1.374.355,2.029,2.029,0,0,0-.806.9l-2.756-.227a4.605,4.605,0,0,1,1.119-1.722,5.122,5.122,0,0,1,1.808-1.122,6.756,6.756,0,0,1,2.372-.394,6.526,6.526,0,0,1,1.7.213,3.847,3.847,0,0,1,1.371.661,2.531,2.531,0,0,1,.838,1.147,3.291,3.291,0,0,1,.1,1.673L27.791,0H24.922l.256-1.513h-.085a3.88,3.88,0,0,1-.852.9,3.9,3.9,0,0,1-1.158.6A4.633,4.633,0,0,1,21.619.206Zm1.214-2.088a2.789,2.789,0,0,0,1.218-.266,2.608,2.608,0,0,0,.923-.721A2.22,2.22,0,0,0,25.44-3.9l.185-1.158a1.453,1.453,0,0,1-.408.163q-.266.071-.575.131t-.621.107q-.313.046-.561.089a4.36,4.36,0,0,0-.98.249,1.9,1.9,0,0,0-.7.458,1.3,1.3,0,0,0-.334.714.936.936,0,0,0,.295.941A1.684,1.684,0,0,0,22.834-1.882Zm6.648,5.973,2.514-15h2.983l-.305,1.832h.135a5.1,5.1,0,0,1,.721-.9,3.749,3.749,0,0,1,1.126-.767,3.773,3.773,0,0,1,1.584-.309,3.581,3.581,0,0,1,2.1.621,3.479,3.479,0,0,1,1.3,1.868,6.7,6.7,0,0,1,.089,3.121,8.107,8.107,0,0,1-1.1,3.079,5.616,5.616,0,0,1-1.911,1.9,4.631,4.631,0,0,1-2.354.643,3.146,3.146,0,0,1-1.445-.291,2.378,2.378,0,0,1-.877-.735,2.953,2.953,0,0,1-.44-.9H33.48l-.966,5.838Zm4.567-9.545a4.81,4.81,0,0,0-.011,1.7,1.984,1.984,0,0,0,.593,1.126,1.7,1.7,0,0,0,1.179.4,2.213,2.213,0,0,0,1.314-.408,3.173,3.173,0,0,0,.959-1.136,5.626,5.626,0,0,0,.547-1.68,4.773,4.773,0,0,0,.007-1.662,2,2,0,0,0-.582-1.122,1.7,1.7,0,0,0-1.193-.4,2.288,2.288,0,0,0-1.31.391,3.018,3.018,0,0,0-.962,1.108A5.374,5.374,0,0,0,34.048-5.455ZM53.182-7.8l-2.749.17a1.393,1.393,0,0,0-.2-.65,1.233,1.233,0,0,0-.5-.458,1.794,1.794,0,0,0-.827-.17,2.58,2.58,0,0,0-1.328.341,1.218,1.218,0,0,0-.661.874.6.6,0,0,0,.178.575,2.143,2.143,0,0,0,.973.4l1.918.4a4.05,4.05,0,0,1,2.219,1.087,2.274,2.274,0,0,1,.487,1.989,3.426,3.426,0,0,1-.916,1.822A4.954,4.954,0,0,1,49.9-.217a7.079,7.079,0,0,1-2.521.43A5.387,5.387,0,0,1,44-.7a2.859,2.859,0,0,1-1.115-2.464l2.955-.156a1.288,1.288,0,0,0,.469,1,1.915,1.915,0,0,0,1.186.344,2.6,2.6,0,0,0,1.438-.352A1.283,1.283,0,0,0,49.6-3.21a.612.612,0,0,0-.21-.6,2.3,2.3,0,0,0-.969-.376L46.605-4.56A3.749,3.749,0,0,1,44.382-5.7a2.5,2.5,0,0,1-.462-2.1,3.3,3.3,0,0,1,.849-1.744,4.4,4.4,0,0,1,1.754-1.119,7.1,7.1,0,0,1,2.433-.391,4.992,4.992,0,0,1,3.2.874A2.773,2.773,0,0,1,53.182-7.8Z" transform="translate(0 19)" fill="#fff" stroke="#fff" stroke-width="0.5"/>
    </g>
  </g>
</svg>
