<svg xmlns="http://www.w3.org/2000/svg" width="86.175" height="86.175" viewBox="0 0 86.175 86.175">
  <g id="logo" transform="translate(-550 -157)">
    <path id="Path_23" data-name="Path 23" d="M43.088,0A43.088,43.088,0,1,1,0,43.088,43.088,43.088,0,0,1,43.088,0Z" transform="translate(550 157)" fill="#cc123c"/>
    <g id="Path_24" data-name="Path 24" transform="translate(554.309 161.309)" fill="#016cb9">
      <path d="M 39.20934677124023 77.41869354248047 C 34.05067825317383 77.41869354248047 29.04684638977051 76.40857696533203 24.33685874938965 74.41642761230469 C 19.78703498840332 72.49201202392578 15.70065784454346 69.73683929443359 12.19125747680664 66.22743225097656 C 8.681858062744141 62.71803665161133 5.926680088043213 58.63165664672852 4.00226879119873 54.08183670043945 C 2.010113477706909 49.37184524536133 1.000002384185791 44.36801528930664 1.000002384185791 39.20934677124023 C 1.000002384185791 34.05067825317383 2.010113477706909 29.04684638977051 4.00226879119873 24.33685874938965 C 5.926680088043213 19.78703498840332 8.681858062744141 15.70065784454346 12.19125747680664 12.19125747680664 C 15.70065784454346 8.681858062744141 19.78703498840332 5.926680088043213 24.33685874938965 4.00226879119873 C 29.04684638977051 2.010113477706909 34.05067825317383 1.000002384185791 39.20934677124023 1.000002384185791 C 44.36801528930664 1.000002384185791 49.37184524536133 2.010113477706909 54.08183670043945 4.00226879119873 C 58.63165664672852 5.926680088043213 62.71803665161133 8.681858062744141 66.22743225097656 12.19125747680664 C 69.73683929443359 15.70065784454346 72.49201202392578 19.78703498840332 74.41642761230469 24.33685874938965 C 76.40857696533203 29.04684638977051 77.41869354248047 34.05067825317383 77.41869354248047 39.20934677124023 C 77.41869354248047 44.36801528930664 76.40857696533203 49.37184524536133 74.41642761230469 54.08183670043945 C 72.49201202392578 58.63165664672852 69.73683929443359 62.71803665161133 66.22743225097656 66.22743225097656 C 62.71803665161133 69.73683929443359 58.63165664672852 72.49201202392578 54.08183670043945 74.41642761230469 C 49.37184524536133 76.40857696533203 44.36801528930664 77.41869354248047 39.20934677124023 77.41869354248047 Z" stroke="none"/>
      <path d="M 39.20934677124023 1.999992370605469 C 34.18524169921875 1.999992370605469 29.31247711181641 2.9835205078125 24.72640609741211 4.923263549804688 C 20.29578018188477 6.797264099121094 16.31625366210938 9.480476379394531 12.89836883544922 12.89836883544922 C 9.480476379394531 16.31625366210938 6.797264099121094 20.29578018188477 4.923263549804688 24.72640609741211 C 2.9835205078125 29.31247711181641 1.999992370605469 34.18524169921875 1.999992370605469 39.20934677124023 C 1.999992370605469 44.23345184326172 2.9835205078125 49.10621643066406 4.923263549804688 53.69228744506836 C 6.797264099121094 58.12290954589844 9.480476379394531 62.10243988037109 12.89836883544922 65.52032470703125 C 16.31625366210938 68.93820190429688 20.29578018188477 71.62141418457031 24.72640609741211 73.49541473388672 C 29.31247711181641 75.43515777587891 34.18524169921875 76.41868591308594 39.20934677124023 76.41868591308594 C 44.23345184326172 76.41868591308594 49.10621643066406 75.43515777587891 53.69228744506836 73.49541473388672 C 58.12290954589844 71.62141418457031 62.10243988037109 68.93820190429688 65.52032470703125 65.52032470703125 C 68.93820190429688 62.10243988037109 71.62141418457031 58.12290954589844 73.49541473388672 53.69228744506836 C 75.43515777587891 49.10621643066406 76.41868591308594 44.23345184326172 76.41868591308594 39.20934677124023 C 76.41868591308594 34.18524169921875 75.43515777587891 29.31247711181641 73.49541473388672 24.72640609741211 C 71.62141418457031 20.29578018188477 68.93820190429688 16.31625366210938 65.52032470703125 12.89836883544922 C 62.10243988037109 9.480476379394531 58.12290954589844 6.797264099121094 53.69228744506836 4.923263549804688 C 49.10621643066406 2.9835205078125 44.23345184326172 1.999992370605469 39.20934677124023 1.999992370605469 M 39.20934677124023 -7.62939453125e-06 C 60.86406707763672 -7.62939453125e-06 78.41868591308594 17.55463027954102 78.41868591308594 39.20934677124023 C 78.41868591308594 60.86406707763672 60.86406707763672 78.41868591308594 39.20934677124023 78.41868591308594 C 17.55463027954102 78.41868591308594 -7.62939453125e-06 60.86406707763672 -7.62939453125e-06 39.20934677124023 C -7.62939453125e-06 17.55463027954102 17.55463027954102 -7.62939453125e-06 39.20934677124023 -7.62939453125e-06 Z" stroke="none" fill="#fff"/>
    </g>
    <path id="Path_25" data-name="Path 25" d="M5.147-7.091,4.9-5.614H.628L.877-7.091ZM2.124-8.79H4.09l-1.1,6.611a.809.809,0,0,0,.014.422.365.365,0,0,0,.2.21.863.863,0,0,0,.339.06,1.61,1.61,0,0,0,.282-.025l.217-.039L4.118-.088q-.166.051-.445.111A3.835,3.835,0,0,1,3.015.1,2.754,2.754,0,0,1,1.8-.095,1.369,1.369,0,0,1,1.08-.771,1.881,1.881,0,0,1,.988-1.92ZM5.244,0,6.426-7.091H8.333L8.125-5.854H8.2a2.324,2.324,0,0,1,.819-1,1.979,1.979,0,0,1,1.11-.339q.148,0,.312.016a2.041,2.041,0,0,1,.293.048l-.3,1.75a1.825,1.825,0,0,0-.367-.076,3.6,3.6,0,0,0-.45-.03,1.743,1.743,0,0,0-.8.187,1.775,1.775,0,0,0-.621.519,1.772,1.772,0,0,0-.33.766L7.211,0Zm7.128.134A2.653,2.653,0,0,1,11.206-.1a1.51,1.51,0,0,1-.722-.709,1.912,1.912,0,0,1-.115-1.168,2.382,2.382,0,0,1,.385-.99,2.272,2.272,0,0,1,.695-.644,3.461,3.461,0,0,1,.912-.374A6.309,6.309,0,0,1,13.4-4.164q.619-.065,1.009-.125a1.718,1.718,0,0,0,.584-.173.473.473,0,0,0,.235-.339v-.028a.76.76,0,0,0-.159-.676.959.959,0,0,0-.727-.242,1.645,1.645,0,0,0-.893.231,1.319,1.319,0,0,0-.524.586L11.13-5.078A2.993,2.993,0,0,1,11.857-6.2a3.329,3.329,0,0,1,1.175-.729,4.391,4.391,0,0,1,1.542-.256,4.242,4.242,0,0,1,1.106.138,2.5,2.5,0,0,1,.891.429,1.645,1.645,0,0,1,.545.746,2.139,2.139,0,0,1,.067,1.087L16.384,0H14.519l.166-.983H14.63a2.522,2.522,0,0,1-.554.584,2.534,2.534,0,0,1-.752.392A3.012,3.012,0,0,1,12.372.134Zm.789-1.357a1.813,1.813,0,0,0,.792-.173,1.7,1.7,0,0,0,.6-.469,1.443,1.443,0,0,0,.3-.669l.12-.752a.945.945,0,0,1-.265.106q-.173.046-.374.085t-.4.069q-.2.03-.365.058a2.834,2.834,0,0,0-.637.162,1.235,1.235,0,0,0-.457.3.842.842,0,0,0-.217.464.608.608,0,0,0,.192.612A1.1,1.1,0,0,0,13.162-1.223ZM21.1.138a3.207,3.207,0,0,1-1.8-.464,2.43,2.43,0,0,1-.983-1.29,3.891,3.891,0,0,1-.1-1.9,4.691,4.691,0,0,1,.734-1.914,3.968,3.968,0,0,1,1.42-1.288,4.016,4.016,0,0,1,1.937-.464,3.343,3.343,0,0,1,1.57.337,2.106,2.106,0,0,1,.942.946,2.516,2.516,0,0,1,.2,1.431H23.17a1.26,1.26,0,0,0-.272-.854,1,1,0,0,0-.812-.328,1.539,1.539,0,0,0-.847.247,1.988,1.988,0,0,0-.651.718,3.393,3.393,0,0,0-.372,1.14,3.084,3.084,0,0,0,0,1.154,1.264,1.264,0,0,0,.406.725,1.145,1.145,0,0,0,.757.249,1.467,1.467,0,0,0,.635-.138,1.5,1.5,0,0,0,.515-.4,1.883,1.883,0,0,0,.342-.639h1.856a3.5,3.5,0,0,1-.686,1.431,3.422,3.422,0,0,1-1.244.96A3.988,3.988,0,0,1,21.1.138ZM27.667-2.04,28.059-4.4h.286l2.728-2.691h2.257L29.693-3.527h-.471ZM25.548,0l1.57-9.455h1.967L27.514,0Zm4.432,0L28.41-3.088l1.537-1.39L32.283,0ZM42.5-6.145H40.5a1.933,1.933,0,0,0-.1-.7,1.389,1.389,0,0,0-.33-.524,1.44,1.44,0,0,0-.533-.33,2.074,2.074,0,0,0-.706-.113,2.655,2.655,0,0,0-1.39.379,3.131,3.131,0,0,0-1.066,1.1,4.832,4.832,0,0,0-.6,1.733A3.9,3.9,0,0,0,35.8-2.968a1.749,1.749,0,0,0,.639.995,1.9,1.9,0,0,0,1.147.335,2.952,2.952,0,0,0,.808-.108,2.55,2.55,0,0,0,.7-.314,2.35,2.35,0,0,0,.554-.5,2.29,2.29,0,0,0,.372-.669h2.008a4.609,4.609,0,0,1-.589,1.256A4.732,4.732,0,0,1,40.45-.9a4.712,4.712,0,0,1-1.334.75,4.685,4.685,0,0,1-1.639.277,4,4,0,0,1-2.209-.591,3.3,3.3,0,0,1-1.327-1.7,5.323,5.323,0,0,1-.152-2.682,6.227,6.227,0,0,1,.995-2.578,4.979,4.979,0,0,1,1.805-1.609,4.9,4.9,0,0,1,2.278-.549,4.755,4.755,0,0,1,1.528.231,3.239,3.239,0,0,1,1.166.672A2.793,2.793,0,0,1,42.287-7.6,3.643,3.643,0,0,1,42.5-6.145Zm1.357-1.662.277-1.648H51.9l-.277,1.648H48.727L47.434,0H45.458l1.293-7.806ZM52.078,0H49.936L54.77-9.455h2.576L59.036,0H56.893l-1.15-7.294H55.67Zm.489-3.716h5.06l-.268,1.56H52.3Z" transform="translate(563.686 204.81)" fill="#fff" stroke="#fff" stroke-width="0.5"/>
  </g>
</svg>
