<svg xmlns="http://www.w3.org/2000/svg" width="21.757" height="27.781" viewBox="0 0 21.757 27.781">
  <g id="Group_12" data-name="Group 12" transform="translate(-1054 -271.016)">
    <g id="Union_1" data-name="Union 1" transform="translate(1054 271.016)" fill="none">
      <path d="M3,27.781a3,3,0,0,1-3-3V9.024a3,3,0,0,1,3-3H7.355L9.829.609a1.208,1.208,0,0,1,2.1,0l2.259,5.415h4.57a3,3,0,0,1,3,3V24.781a3,3,0,0,1-3,3Z" stroke="none"/>
      <path d="M 18.75690078735352 25.78120040893555 C 19.30813980102539 25.78120040893555 19.75660133361816 25.33274078369141 19.75660133361816 24.7814998626709 L 19.75660133361816 9.024300575256348 C 19.75660133361816 8.473060607910156 19.30813980102539 8.024600028991699 18.75690078735352 8.024600028991699 L 12.8545503616333 8.024600028991699 L 10.84281349182129 3.203064441680908 L 8.640191078186035 8.024600028991699 L 3.000600576400757 8.024600028991699 C 2.448870658874512 8.024600028991699 2.000000715255737 8.473060607910156 2.000000715255737 9.024300575256348 L 2.000000715255737 24.7814998626709 C 2.000000715255737 25.33274078369141 2.448870658874512 25.78120040893555 3.000600576400757 25.78120040893555 L 18.75690078735352 25.78120040893555 M 18.75690078735352 27.78120040893555 L 3.000600576400757 27.78120040893555 C 1.343700647354126 27.78120040893555 6.668090577477415e-07 26.43840026855469 6.668090577477415e-07 24.7814998626709 L 6.668090577477415e-07 9.024300575256348 C 6.668090577477415e-07 7.367400169372559 1.343700647354126 6.024600505828857 3.000600576400757 6.024600505828857 L 7.355040550231934 6.024600505828857 L 9.828900337219238 0.6093003749847412 C 10.29330158233643 -0.2033996284008026 11.46420001983643 -0.2033996284008026 11.92770099639893 0.6093003749847412 L 14.187180519104 6.024600505828857 L 18.75690078735352 6.024600505828857 C 20.4138011932373 6.024600505828857 21.75660133361816 7.367400169372559 21.75660133361816 9.024300575256348 L 21.75660133361816 24.7814998626709 C 21.75660133361816 26.43840026855469 20.4138011932373 27.78120040893555 18.75690078735352 27.78120040893555 Z" stroke="none" fill="#707070"/>
    </g>
  </g>
</svg>
