<svg xmlns="http://www.w3.org/2000/svg" width="19.307" height="22.103" viewBox="0 0 19.307 22.103">
  <g id="Path_48" data-name="Path 48" transform="translate(0 4.926)" fill="none" opacity="1">
    <path d="M9.653-4.926s9.653,7.119,9.653,12.45A9.653,9.653,0,1,1,0,7.525C0,2.193,9.653-4.926,9.653-4.926Z" stroke="none"/>
    <path d="M 9.652626037597656 -1.732494354248047 C 8.810468673706055 -1.030431747436523 7.707257270812988 -0.05991744995117188 6.60629940032959 1.056013107299805 C 2.900119781494141 4.81259298324585 2.5 6.831112861633301 2.5 7.524592876434326 C 2.5 11.46891307830811 5.708939552307129 14.67785263061523 9.65325927734375 14.67785263061523 C 13.59757995605469 14.67785263061523 16.8065185546875 11.46891307830811 16.8065185546875 7.524592876434326 C 16.8065185546875 6.835422992706299 16.41055870056152 4.829762935638428 12.74292945861816 1.099372863769531 C 11.63222026824951 -0.03033638000488281 10.50846576690674 -1.018999099731445 9.652626037597656 -1.732494354248047 M 9.65325927734375 -4.925626754760742 C 9.65325927734375 -4.925626754760742 19.3065185546875 2.193243026733398 19.3065185546875 7.524592876434326 C 19.3065185546875 12.85594272613525 14.98460960388184 17.17785263061523 9.65325927734375 17.17785263061523 C 4.321908950805664 17.17785263061523 0 12.85594272613525 0 7.524592876434326 C 0 2.193243026733398 9.65325927734375 -4.925626754760742 9.65325927734375 -4.925626754760742 Z" stroke="none" fill="#000"/>
  </g>
</svg>
