<svg xmlns="http://www.w3.org/2000/svg" width="20.441" height="20.441" viewBox="0 0 20.441 20.441">
  <g id="Group_11" data-name="Group 11" transform="translate(-1129.28 -594.28)">
    <g id="Path_2" data-name="Path 2" transform="translate(1132 597)" fill="#3d7fd9">
      <path d="M7.5,0A7.5,7.5,0,1,1,0,7.5,7.5,7.5,0,0,1,7.5,0Z" stroke="none"/>
      <path d="M 7.5 3 C 5.01869010925293 3 3 5.01869010925293 3 7.5 C 3 9.98130989074707 5.01869010925293 12 7.5 12 C 9.98130989074707 12 12 9.98130989074707 12 7.5 C 12 5.01869010925293 9.98130989074707 3 7.5 3 M 7.5 0 C 11.64213943481445 0 15 3.35785961151123 15 7.5 C 15 11.64213943481445 11.64213943481445 15 7.5 15 C 3.35785961151123 15 0 11.64213943481445 0 7.5 C 0 3.35785961151123 3.35785961151123 0 7.5 0 Z" stroke="none" fill="rgba(255,255,255,0.68)"/>
    </g>
    <path id="Path_47" data-name="Path 47" d="M10.22,0A10.22,10.22,0,1,1,0,10.22,10.22,10.22,0,0,1,10.22,0Z" transform="translate(1129.28 594.28)" fill="#3d7fd9" opacity="0.155"/>
  </g>
</svg>
